<svg width="33" height="33" viewBox="0 0 33 33" fill="none" xmlns="http://www.w3.org/2000/svg">
<g clip-path="url(#clip0_1_581)">
<path d="M30.9286 24.75C30.9286 25.297 30.7113 25.8216 30.3245 26.2084C29.9378 26.5952 29.4132 26.8125 28.8662 26.8125H4.11762C3.57065 26.8125 3.04607 26.5952 2.6593 26.2084C2.27253 25.8216 2.05524 25.297 2.05524 24.75V12.375C2.05524 11.828 2.27253 11.3034 2.6593 10.9166C3.04607 10.5298 3.57065 10.3125 4.11762 10.3125H6.53474C8.17482 10.3116 9.74745 9.65952 10.907 8.49956L12.6188 6.79181C13.0044 6.406 13.5272 6.18871 14.0727 6.1875H18.907C19.4539 6.18762 19.9784 6.40499 20.3651 6.79181L22.0727 8.49956C22.6474 9.07441 23.3296 9.5304 24.0806 9.84147C24.8315 10.1525 25.6363 10.3126 26.4491 10.3125H28.8662C29.4132 10.3125 29.9378 10.5298 30.3245 10.9166C30.7113 11.3034 30.9286 11.828 30.9286 12.375V24.75ZM4.11762 8.25C3.02367 8.25 1.97452 8.6846 1.20097 9.45818C0.427431 10.2318 -0.00714111 11.281 -0.00714111 12.375L-0.00714111 24.75C-0.00714111 25.844 0.427431 26.8932 1.20097 27.6668C1.97452 28.4404 3.02367 28.875 4.11762 28.875H28.8662C29.9602 28.875 31.0093 28.4404 31.7829 27.6668C32.5564 26.8932 32.991 25.844 32.991 24.75V12.375C32.991 11.281 32.5564 10.2318 31.7829 9.45818C31.0093 8.6846 29.9602 8.25 28.8662 8.25H26.4491C25.3552 8.24977 24.3063 7.81502 23.5329 7.04138L21.8252 5.33362C21.0519 4.55998 20.0029 4.12523 18.909 4.125H14.0748C12.9809 4.12523 11.932 4.55998 11.1586 5.33362L9.45095 7.04138C8.67758 7.81502 7.6286 8.24977 6.53474 8.25H4.11762Z" fill="#464E5F"/>
<path d="M16.4922 22.6875C15.1247 22.6875 13.8133 22.1443 12.8463 21.1773C11.8794 20.2103 11.3362 18.8988 11.3362 17.5312C11.3362 16.1637 11.8794 14.8522 12.8463 13.8852C13.8133 12.9182 15.1247 12.375 16.4922 12.375C17.8596 12.375 19.171 12.9182 20.138 13.8852C21.1049 14.8522 21.6481 16.1637 21.6481 17.5312C21.6481 18.8988 21.1049 20.2103 20.138 21.1773C19.171 22.1443 17.8596 22.6875 16.4922 22.6875ZM16.4922 24.75C18.4066 24.75 20.2426 23.9895 21.5963 22.6357C22.95 21.2819 23.7105 19.4458 23.7105 17.5312C23.7105 15.6167 22.95 13.7806 21.5963 12.4268C20.2426 11.073 18.4066 10.3125 16.4922 10.3125C14.5777 10.3125 12.7417 11.073 11.388 12.4268C10.0343 13.7806 9.27382 15.6167 9.27382 17.5312C9.27382 19.4458 10.0343 21.2819 11.388 22.6357C12.7417 23.9895 14.5777 24.75 16.4922 24.75ZM6.18024 13.4062C6.18024 13.6798 6.0716 13.9421 5.87821 14.1355C5.68483 14.3289 5.42254 14.4375 5.14905 14.4375C4.87556 14.4375 4.61327 14.3289 4.41989 14.1355C4.2265 13.9421 4.11786 13.6798 4.11786 13.4062C4.11786 13.1327 4.2265 12.8704 4.41989 12.677C4.61327 12.4836 4.87556 12.375 5.14905 12.375C5.42254 12.375 5.68483 12.4836 5.87821 12.677C6.0716 12.8704 6.18024 13.1327 6.18024 13.4062Z" fill="#464E5F"/>
</g>
<defs>
<clipPath id="clip0_1_581">
<rect width="32.9981" height="33" fill="white" transform="translate(-0.00714111)"/>
</clipPath>
</defs>
</svg>
