<svg width="100" height="26" viewBox="0 0 100 26" fill="none" xmlns="http://www.w3.org/2000/svg">
<path d="M9.65 10.525C10.2833 10.625 10.8583 10.8833 11.375 11.3C11.9083 11.7167 12.325 12.2333 12.625 12.85C12.9417 13.4667 13.1 14.125 13.1 14.825C13.1 15.7083 12.875 16.5083 12.425 17.225C11.975 17.925 11.3167 18.4833 10.45 18.9C9.6 19.3 8.59167 19.5 7.425 19.5H0.925V2.075H7.175C8.35833 2.075 9.36667 2.275 10.2 2.675C11.0333 3.05833 11.6583 3.58333 12.075 4.25C12.4917 4.91667 12.7 5.66667 12.7 6.5C12.7 7.53333 12.4167 8.39167 11.85 9.075C11.3 9.74167 10.5667 10.225 9.65 10.525ZM3.2 9.6H7.025C8.09167 9.6 8.91667 9.35 9.5 8.85C10.0833 8.35 10.375 7.65833 10.375 6.775C10.375 5.89167 10.0833 5.2 9.5 4.7C8.91667 4.2 8.075 3.95 6.975 3.95H3.2V9.6ZM7.225 17.625C8.35833 17.625 9.24167 17.3583 9.875 16.825C10.5083 16.2917 10.825 15.55 10.825 14.6C10.825 13.6333 10.4917 12.875 9.825 12.325C9.15833 11.7583 8.26667 11.475 7.15 11.475H3.2V17.625H7.225ZM15.407 12.6C15.407 11.2 15.6904 9.975 16.257 8.925C16.8237 7.85833 17.5987 7.03333 18.582 6.45C19.582 5.86667 20.6904 5.575 21.907 5.575C23.107 5.575 24.1487 5.83333 25.032 6.35C25.9154 6.86667 26.5737 7.51667 27.007 8.3V5.8H29.307V19.5H27.007V16.95C26.557 17.75 25.882 18.4167 24.982 18.95C24.0987 19.4667 23.0654 19.725 21.882 19.725C20.6654 19.725 19.5654 19.425 18.582 18.825C17.5987 18.225 16.8237 17.3833 16.257 16.3C15.6904 15.2167 15.407 13.9833 15.407 12.6ZM27.007 12.625C27.007 11.5917 26.7987 10.6917 26.382 9.925C25.9654 9.15833 25.3987 8.575 24.682 8.175C23.982 7.75833 23.207 7.55 22.357 7.55C21.507 7.55 20.732 7.75 20.032 8.15C19.332 8.55 18.7737 9.13333 18.357 9.9C17.9404 10.6667 17.732 11.5667 17.732 12.6C17.732 13.65 17.9404 14.5667 18.357 15.35C18.7737 16.1167 19.332 16.7083 20.032 17.125C20.732 17.525 21.507 17.725 22.357 17.725C23.207 17.725 23.982 17.525 24.682 17.125C25.3987 16.7083 25.9654 16.1167 26.382 15.35C26.7987 14.5667 27.007 13.6583 27.007 12.625ZM32.3016 12.6C32.3016 11.2 32.5849 9.975 33.1516 8.925C33.7182 7.85833 34.4932 7.03333 35.4766 6.45C36.4766 5.86667 37.5932 5.575 38.8266 5.575C39.8932 5.575 40.8849 5.825 41.8016 6.325C42.7182 6.80833 43.4182 7.45 43.9016 8.25V1H46.2016V19.5H43.9016V16.925C43.4516 17.7417 42.7849 18.4167 41.9016 18.95C41.0182 19.4667 39.9849 19.725 38.8016 19.725C37.5849 19.725 36.4766 19.425 35.4766 18.825C34.4932 18.225 33.7182 17.3833 33.1516 16.3C32.5849 15.2167 32.3016 13.9833 32.3016 12.6ZM43.9016 12.625C43.9016 11.5917 43.6932 10.6917 43.2766 9.925C42.8599 9.15833 42.2932 8.575 41.5766 8.175C40.8766 7.75833 40.1016 7.55 39.2516 7.55C38.4016 7.55 37.6266 7.75 36.9266 8.15C36.2266 8.55 35.6682 9.13333 35.2516 9.9C34.8349 10.6667 34.6266 11.5667 34.6266 12.6C34.6266 13.65 34.8349 14.5667 35.2516 15.35C35.6682 16.1167 36.2266 16.7083 36.9266 17.125C37.6266 17.525 38.4016 17.725 39.2516 17.725C40.1016 17.725 40.8766 17.525 41.5766 17.125C42.2932 16.7083 42.8599 16.1167 43.2766 15.35C43.6932 14.5667 43.9016 13.6583 43.9016 12.625ZM51.2211 3.575C50.7878 3.575 50.4211 3.425 50.1211 3.125C49.8211 2.825 49.6711 2.45833 49.6711 2.025C49.6711 1.59167 49.8211 1.225 50.1211 0.924999C50.4211 0.624999 50.7878 0.474999 51.2211 0.474999C51.6378 0.474999 51.9878 0.624999 52.2711 0.924999C52.5711 1.225 52.7211 1.59167 52.7211 2.025C52.7211 2.45833 52.5711 2.825 52.2711 3.125C51.9878 3.425 51.6378 3.575 51.2211 3.575ZM52.3211 5.8V19.5H50.0461V5.8H52.3211ZM57.3734 3.575C56.9401 3.575 56.5734 3.425 56.2734 3.125C55.9734 2.825 55.8234 2.45833 55.8234 2.025C55.8234 1.59167 55.9734 1.225 56.2734 0.924999C56.5734 0.624999 56.9401 0.474999 57.3734 0.474999C57.7901 0.474999 58.1401 0.624999 58.4234 0.924999C58.7234 1.225 58.8734 1.59167 58.8734 2.025C58.8734 2.45833 58.7234 2.825 58.4234 3.125C58.1401 3.425 57.7901 3.575 57.3734 3.575ZM58.4734 5.8V19.5H56.1984V5.8H58.4734ZM74.1508 5.8L65.9008 25.95H63.5508L66.2508 19.35L60.7258 5.8H63.2508L67.5508 16.9L71.8008 5.8H74.1508ZM75.5877 12.6C75.5877 11.2 75.871 9.975 76.4377 8.925C77.0044 7.85833 77.7794 7.03333 78.7627 6.45C79.7627 5.86667 80.871 5.575 82.0877 5.575C83.2877 5.575 84.3294 5.83333 85.2127 6.35C86.096 6.86667 86.7544 7.51667 87.1877 8.3V5.8H89.4877V19.5H87.1877V16.95C86.7377 17.75 86.0627 18.4167 85.1627 18.95C84.2794 19.4667 83.246 19.725 82.0627 19.725C80.846 19.725 79.746 19.425 78.7627 18.825C77.7794 18.225 77.0044 17.3833 76.4377 16.3C75.871 15.2167 75.5877 13.9833 75.5877 12.6ZM87.1877 12.625C87.1877 11.5917 86.9794 10.6917 86.5627 9.925C86.146 9.15833 85.5794 8.575 84.8627 8.175C84.1627 7.75833 83.3877 7.55 82.5377 7.55C81.6877 7.55 80.9127 7.75 80.2127 8.15C79.5127 8.55 78.9544 9.13333 78.5377 9.9C78.121 10.6667 77.9127 11.5667 77.9127 12.6C77.9127 13.65 78.121 14.5667 78.5377 15.35C78.9544 16.1167 79.5127 16.7083 80.2127 17.125C80.9127 17.525 81.6877 17.725 82.5377 17.725C83.3877 17.725 84.1627 17.525 84.8627 17.125C85.5794 16.7083 86.146 16.1167 86.5627 15.35C86.9794 14.5667 87.1877 13.6583 87.1877 12.625ZM96.1072 7.675V15.75C96.1072 16.4167 96.2489 16.8917 96.5322 17.175C96.8156 17.4417 97.3072 17.575 98.0072 17.575H99.6822V19.5H97.6322C96.3656 19.5 95.4156 19.2083 94.7822 18.625C94.1489 18.0417 93.8322 17.0833 93.8322 15.75V7.675H92.0572V5.8H93.8322V2.35H96.1072V5.8H99.6822V7.675H96.1072Z" fill="#D1B89D"/>
</svg>
