<svg width="142" height="142" viewBox="0 0 142 142" fill="none" xmlns="http://www.w3.org/2000/svg">
<path d="M0 71C1.67806 80.1235 3.14433 89.2795 4.8224 98.4029C10.0847 106.044 15.5262 113.554 20.7884 121.195C28.4293 126.458 35.9399 131.899 43.5808 137.161C52.7042 138.839 61.8603 140.306 70.9837 141.984C80.1072 140.306 89.2632 138.839 98.3866 137.161C106.028 131.899 113.538 126.458 121.179 121.195C126.441 113.554 131.883 106.044 137.145 98.4029C138.823 89.2795 140.289 80.1235 141.967 71C140.289 61.8765 138.823 52.7205 137.145 43.5971C131.883 35.9562 126.441 28.4456 121.179 20.8047C113.538 15.5424 106.028 10.101 98.3866 4.83869C89.2795 3.14433 80.1235 1.67806 71 0C61.8765 1.67806 52.7205 3.14433 43.5971 4.8224C35.9562 10.0847 28.4456 15.5262 20.8047 20.7884C15.5424 28.4293 10.101 35.9399 4.83869 43.5808C3.14433 52.7042 1.67806 61.8765 0 71ZM11.5184 95.6333C10.0195 87.4385 8.68357 79.1948 7.20101 71C8.68357 62.7889 10.0195 54.5615 11.5184 46.3667C16.2593 39.5078 21.1306 32.7467 25.8878 25.8878C32.7467 21.1469 39.5078 16.2593 46.3667 11.5184C54.5615 10.0195 62.8052 8.68357 71 7.20101C79.2111 8.68357 87.4385 10.0195 95.6333 11.5184C102.492 16.2593 109.253 21.1306 116.112 25.8878C120.853 32.7467 125.741 39.5078 130.482 46.3667C131.98 54.5615 133.316 62.8052 134.799 71C133.3 79.1948 131.964 87.4385 130.465 95.6333C125.724 102.492 120.853 109.253 116.096 116.112C109.237 120.853 102.476 125.741 95.617 130.482C87.4222 131.98 79.1785 133.316 70.9837 134.799C62.7726 133.316 54.5452 131.98 46.3504 130.482C39.4915 125.741 32.7304 120.869 25.8715 116.112C21.1469 109.253 16.2593 102.492 11.5184 95.6333Z" fill="#0D0D0D" fill-opacity="0.05"/>
<path d="M63.0659 70.9999C63.2125 72.0263 63.3592 73.069 63.5221 74.0954C64.1412 74.9263 64.7603 75.7735 65.3957 76.6044C66.2265 77.2234 67.0574 77.8588 67.9046 78.4779C68.931 78.6245 69.9737 78.7875 71.0001 78.9341C72.0265 78.7875 73.0691 78.6408 74.0955 78.4779C74.9264 77.8588 75.7736 77.2397 76.6045 76.6044C77.2236 75.7735 77.8589 74.9426 78.478 74.0954C78.6247 73.069 78.7876 72.0263 78.9342 70.9999C78.7876 69.9736 78.641 68.9309 78.478 67.9045C77.8589 67.0736 77.2399 66.2264 76.6045 65.3955C75.7736 64.7764 74.9427 64.1411 74.0955 63.522C73.0691 63.3753 72.0265 63.2124 71.0001 63.0658C69.9737 63.2124 68.931 63.3591 67.9046 63.522C67.0737 64.1411 66.2265 64.7602 65.3957 65.3955C64.7766 66.2264 64.1412 67.0573 63.5221 67.9045C63.3755 68.9309 63.2125 69.9573 63.0659 70.9999ZM69.6641 71.5539C69.6315 71.3747 69.6153 71.1792 69.5827 70.9999C69.6153 70.8207 69.6315 70.6252 69.6641 70.446C69.7782 70.2994 69.8922 70.1528 70.0063 69.9898C70.1529 69.8758 70.2995 69.7618 70.4624 69.664C70.6416 69.6314 70.8371 69.6151 71.0164 69.5825C71.1956 69.6151 71.3911 69.6314 71.5703 69.664C71.7169 69.778 71.8635 69.8921 72.0265 69.9898C72.1405 70.1365 72.2545 70.2831 72.3523 70.446C72.3849 70.6252 72.4012 70.8207 72.4337 70.9999C72.4012 71.1792 72.3849 71.3747 72.3523 71.5539C72.2382 71.7005 72.1242 71.8471 72.0265 72.01C71.8798 72.1241 71.7332 72.2381 71.5703 72.3522C71.3911 72.3848 71.1956 72.401 71.0164 72.4336C70.8371 72.401 70.6416 72.3848 70.4624 72.3522C70.3158 72.2381 70.1692 72.1241 70.0063 72.01C69.8759 71.8471 69.7782 71.7005 69.6641 71.5539Z" fill="#0D0D0D" fill-opacity="0.05"/>
<path d="M17.4324 71C18.6706 77.8914 19.811 84.7992 21.0492 91.6906C25.057 97.4417 29.1299 103.128 33.1214 108.879C38.8725 112.87 44.5583 116.959 50.3094 120.951C57.2008 122.189 64.1086 123.313 71.0001 124.568C77.8915 123.329 84.7993 122.189 91.6907 120.951C97.4418 116.943 103.128 112.87 108.879 108.879C112.87 103.128 116.959 97.4417 120.951 91.6906C122.189 84.7992 123.313 77.8914 124.568 71C123.33 64.1085 122.189 57.2007 120.951 50.3093C116.943 44.5583 112.87 38.8724 108.879 33.1214C103.128 29.1298 97.4418 25.0406 91.6907 21.0491C84.7993 19.8109 77.8915 18.6868 71.0001 17.4323C64.1086 18.6705 57.2008 19.8109 50.3094 21.0491C44.5583 25.0569 38.8725 29.1298 33.1214 33.1214C29.1299 38.8724 25.0407 44.5583 21.0492 50.3093C19.811 57.2007 18.6868 64.1085 17.4324 71ZM54.92 77.647C54.5778 75.4314 54.252 73.2157 53.9425 70.9837C54.252 68.768 54.5778 66.536 54.92 64.3203C56.2396 62.5119 57.5755 60.7035 58.9278 58.9114C60.7199 57.5592 62.512 56.2232 64.3367 54.9036C66.5524 54.5615 68.7681 54.2356 71.0001 53.9261C73.2157 54.2356 75.4477 54.5615 77.6634 54.9036C79.4718 56.2232 81.2802 57.5592 83.0723 58.9114C84.4246 60.7035 85.7605 62.4956 87.0801 64.3203C87.4223 66.536 87.7481 68.7517 88.0576 70.9837C87.7481 73.1994 87.4223 75.4314 87.0801 77.647C85.7605 79.4554 84.4246 81.2638 83.0723 83.0559C81.2802 84.4082 79.4881 85.7441 77.6634 87.0637C75.4477 87.4059 73.232 87.7317 71.0001 88.0413C68.7844 87.7317 66.5524 87.4059 64.3367 87.0637C62.5283 85.7441 60.7199 84.4082 58.9278 83.0559C57.5918 81.2638 56.2559 79.4554 54.92 77.647ZM38.4 72.3522C38.3674 72.1241 38.3837 72.1404 38.4163 72.4174C38.4652 72.7595 38.4652 72.7269 38.4 72.3196C38.4 72.3359 38.4 72.3359 38.4 72.3522ZM48.9083 94.9979C48.7291 94.8676 48.7454 94.8676 48.9734 95.0468C49.2504 95.2586 49.2178 95.2423 48.892 94.9816L48.9083 94.9979ZM72.3523 103.584C72.1242 103.616 72.1405 103.6 72.4174 103.567C72.7596 103.519 72.727 103.519 72.3197 103.584C72.336 103.584 72.336 103.584 72.3523 103.584ZM94.998 93.0917C94.8676 93.271 94.8676 93.2547 95.0469 93.0266C95.2587 92.7496 95.2424 92.7822 94.9817 93.108L94.998 93.0917ZM103.584 69.6477C103.616 69.8758 103.616 69.8595 103.568 69.5826C103.519 69.2404 103.519 69.273 103.584 69.6803C103.584 69.664 103.584 69.6477 103.584 69.6477ZM93.0918 47.002C93.271 47.1324 93.2547 47.1324 93.0267 46.9532C92.7497 46.7414 92.7823 46.7577 93.1081 47.0183C93.1081 47.002 93.0918 47.002 93.0918 47.002ZM69.6478 38.3999C69.8759 38.3673 69.8596 38.3836 69.5664 38.4162C69.2242 38.4651 69.2568 38.4651 69.6641 38.3999H69.6478ZM47.0021 48.9082C47.1325 48.729 47.1325 48.7453 46.9532 48.9733C46.7415 49.2503 46.7577 49.2177 47.0184 48.8919C47.0021 48.8919 47.0021 48.9082 47.0021 48.9082ZM38.4 69.6803C38.4489 69.273 38.4652 69.2241 38.4163 69.5826C38.3837 69.8595 38.3837 69.8758 38.4 69.6477C38.4 69.6477 38.4 69.664 38.4 69.6803ZM47.0184 93.108C46.7577 92.7822 46.7415 92.7496 46.9532 93.0266C47.1325 93.2547 47.1325 93.271 47.0021 93.0917C47.0021 93.0917 47.0021 93.108 47.0184 93.108ZM69.6804 103.584C69.2731 103.535 69.2242 103.519 69.5827 103.567C69.8596 103.6 69.8759 103.6 69.6641 103.584C69.6478 103.584 69.6641 103.584 69.6804 103.584ZM93.1081 94.9816C92.7823 95.2423 92.7497 95.2586 93.0267 95.0468C93.2547 94.8676 93.271 94.8676 93.0918 94.9979L93.1081 94.9816ZM103.584 72.3196C103.535 72.7269 103.519 72.7758 103.568 72.4174C103.6 72.1404 103.6 72.1241 103.584 72.3522C103.584 72.3359 103.584 72.3359 103.584 72.3196ZM94.9817 48.8919C95.2424 49.2177 95.2587 49.2503 95.0469 48.9733C94.8676 48.7453 94.8676 48.729 94.998 48.9082L94.9817 48.8919ZM72.3197 38.3999C72.727 38.4488 72.7759 38.4651 72.4174 38.4162C72.1405 38.3836 72.1242 38.3836 72.3523 38.3999C72.336 38.3999 72.336 38.3999 72.3197 38.3999ZM48.892 47.0183C49.2178 46.7577 49.2504 46.7414 48.9734 46.9532C48.7454 47.1324 48.7291 47.1324 48.9083 47.002C48.9083 47.002 48.892 47.002 48.892 47.0183ZM38.5629 71C38.4815 71.2118 38.4326 71.4398 38.4 71.6842C38.3511 71.9286 38.3674 72.173 38.4163 72.4174C38.4163 72.6129 38.4652 72.7921 38.5466 72.9713C38.7421 73.3949 38.8725 73.7207 39.2146 74.0465C39.9803 74.796 40.9741 74.8611 41.9842 74.7797C44.5095 74.5353 46.8881 73.6229 49.2504 72.7758C49.5274 74.7634 49.8206 76.751 50.1139 78.7386C44.037 79.6672 34.8647 80.433 33.9849 72.9224C33.9035 72.2381 33.9035 71.6028 33.9849 71.0163C33.9035 70.4297 33.9035 69.7944 33.9849 69.1101C34.8647 61.5995 44.037 62.3653 50.1139 63.2939C49.8043 65.2815 49.5274 67.2691 49.2504 69.2567C46.8718 68.4095 44.5095 67.4972 41.9842 67.2528C40.9741 67.1551 39.9803 67.2365 39.2146 67.986C38.8725 68.3118 38.7421 68.6376 38.5466 69.0612C38.4652 69.2404 38.4163 69.4196 38.4163 69.6152C38.3674 69.8595 38.3511 70.1039 38.4 70.3483C38.4326 70.5601 38.4815 70.7882 38.5629 71ZM48.0611 48.061C47.8493 48.1588 47.6538 48.2728 47.4583 48.4357C47.2465 48.566 47.0836 48.7453 46.9532 48.9571C46.8229 49.1037 46.7089 49.2503 46.66 49.4295C46.5134 49.8694 46.3667 50.179 46.3667 50.6677C46.383 51.7267 47.0347 52.4924 47.8167 53.1441C49.7717 54.757 52.1015 55.7834 54.366 56.8749C53.1604 58.4715 51.9549 60.0844 50.7655 61.6973C45.8128 58.0642 38.791 52.1177 43.4668 46.1711C43.8904 45.6335 44.3465 45.1936 44.819 44.8352C45.1774 44.3627 45.6173 43.9066 46.1549 43.483C52.0852 38.7909 58.0317 45.829 61.6811 50.7817C60.0682 51.9711 58.4553 53.1604 56.8587 54.3823C55.7834 52.1014 54.7571 49.7879 53.1279 47.8329C52.4762 47.0509 51.7105 46.3992 50.6515 46.3829C50.179 46.3829 49.8532 46.5133 49.4133 46.6762C49.2341 46.7414 49.0712 46.8391 48.9409 46.9694C48.7291 47.0998 48.5661 47.2627 48.4195 47.4745C48.2729 47.6537 48.1588 47.8492 48.0611 48.061ZM71.0001 38.5628C70.7883 38.4814 70.5602 38.4325 70.3158 38.3999C70.0714 38.351 69.827 38.3673 69.5827 38.4162C69.3872 38.4162 69.2079 38.4651 69.0287 38.5465C68.6051 38.7421 68.2793 38.8724 67.9535 39.2145C67.204 39.9802 67.1389 40.974 67.2203 41.9841C67.4647 44.5094 68.3771 46.888 69.2242 49.2503C67.2366 49.5273 65.249 49.8205 63.2614 50.1138C62.3328 44.0369 61.5671 34.8646 69.0776 33.9848C69.7619 33.9034 70.3973 33.9034 70.9838 33.9848C71.5703 33.9034 72.2057 33.9034 72.8899 33.9848C80.4005 34.8646 79.6347 44.0369 78.7061 50.1138C76.7185 49.8042 74.7309 49.5273 72.7433 49.2503C73.5905 46.8717 74.5028 44.5094 74.7472 41.9841C74.8449 40.974 74.7635 39.9802 74.014 39.2145C73.6882 38.8724 73.3624 38.7421 72.9388 38.5465C72.7596 38.4651 72.5804 38.4162 72.3849 38.4162C72.1405 38.3673 71.8961 38.351 71.6517 38.3999C71.4399 38.4325 71.2118 38.4814 71.0001 38.5628ZM93.939 48.061C93.8413 47.8492 93.7272 47.6537 93.5643 47.4582C93.434 47.2464 93.2548 47.0835 93.043 46.9532C92.8963 46.8228 92.7497 46.7088 92.5705 46.6599C92.1306 46.5133 91.8211 46.3666 91.3323 46.3666C90.2733 46.3829 89.5076 47.0346 88.8559 47.8166C87.243 49.7717 86.2167 52.1014 85.1251 54.366C83.5285 53.1604 81.9156 51.9548 80.3027 50.7655C83.9358 45.8127 89.8823 38.7909 95.8289 43.4667C96.3665 43.8903 96.8064 44.3465 97.1648 44.8189C97.6373 45.1773 98.0934 45.6172 98.517 46.1549C103.209 52.0851 96.171 58.0316 91.2183 61.681C90.029 60.0681 88.8234 58.4552 87.6178 56.8586C89.8986 55.7834 92.2121 54.757 94.1671 53.1278C94.9491 52.4761 95.6008 51.7267 95.6171 50.6514C95.6171 50.1789 95.4867 49.8531 95.3238 49.4132C95.2587 49.234 95.1609 49.0711 95.0306 48.9408C94.9002 48.729 94.721 48.5661 94.5255 48.4194C94.33 48.2728 94.1508 48.1588 93.939 48.061ZM103.437 71C103.519 70.7882 103.568 70.5601 103.6 70.3157C103.649 70.0713 103.633 69.8269 103.584 69.5826C103.584 69.3871 103.535 69.2079 103.453 69.0286C103.258 68.6051 103.128 68.2792 102.785 67.9534C102.02 67.204 101.026 67.1388 100.016 67.2202C97.4906 67.4646 95.112 68.377 92.7497 69.2241C92.4727 67.2365 92.1795 65.2489 91.8862 63.2613C97.9631 62.3327 107.135 61.567 108.015 69.0775C108.097 69.7618 108.097 70.3972 108.015 70.9837C108.097 71.5702 108.097 72.2056 108.015 72.8898C107.135 80.4004 97.9631 79.6347 91.8862 78.706C92.1958 76.7184 92.4727 74.7308 92.7497 72.7432C95.1283 73.5904 97.4906 74.5027 100.016 74.7471C101.026 74.8448 102.02 74.7634 102.785 74.014C103.128 73.6881 103.258 73.3623 103.453 72.9387C103.535 72.7595 103.584 72.5803 103.584 72.3848C103.633 72.1404 103.649 71.896 103.6 71.6516C103.568 71.4398 103.519 71.2118 103.437 71ZM93.939 93.9389C94.1508 93.8412 94.3463 93.7271 94.5418 93.5642C94.7536 93.4339 94.9165 93.2547 95.0469 93.0429C95.1772 92.8962 95.2912 92.7496 95.3401 92.5704C95.4867 92.1305 95.6334 91.821 95.6334 91.3322C95.6171 90.2732 94.9654 89.5075 94.1834 88.8559C92.2284 87.243 89.8986 86.2166 87.6341 85.125C88.8397 83.5284 90.0452 81.9155 91.2346 80.3026C96.1873 83.9357 103.209 89.8822 98.5333 95.8288C98.1097 96.3664 97.6536 96.8063 97.1811 97.1647C96.8227 97.6372 96.3828 98.0933 95.8452 98.5169C89.9149 103.209 83.9684 96.1709 80.319 91.2182C81.9319 90.0289 83.5448 88.8396 85.1414 87.6177C86.2167 89.8985 87.243 92.212 88.8722 94.167C89.5239 94.949 90.2896 95.6007 91.3486 95.617C91.8211 95.617 92.1469 95.4866 92.5868 95.3237C92.766 95.2586 92.9289 95.1608 93.0592 95.0305C93.271 94.9001 93.434 94.7209 93.5806 94.5254C93.7109 94.3299 93.8413 94.1507 93.939 93.9389ZM71.0001 103.437C71.2118 103.519 71.4399 103.567 71.6843 103.6C71.9287 103.649 72.1731 103.633 72.4174 103.584C72.6129 103.584 72.7922 103.535 72.9714 103.453C73.395 103.258 73.7208 103.128 74.0466 102.785C74.7961 102.02 74.8612 101.026 74.7798 100.016C74.5354 97.4905 73.623 95.1119 72.7759 92.7496C74.7635 92.4726 76.7511 92.1794 78.7387 91.8861C79.6673 97.963 80.433 107.135 72.9225 108.015C72.2382 108.097 71.6029 108.097 71.0163 108.015C70.4298 108.097 69.7944 108.097 69.1102 108.015C61.5996 107.135 62.3654 97.963 63.294 91.8861C65.2816 92.1957 67.2692 92.4726 69.2568 92.7496C68.4096 95.1282 67.4973 97.4905 67.2529 100.016C67.1552 101.026 67.2366 102.02 67.9861 102.785C68.3119 103.128 68.6377 103.258 69.0613 103.453C69.2405 103.535 69.4197 103.584 69.6152 103.584C69.8596 103.633 70.104 103.649 70.3484 103.6C70.5602 103.567 70.7883 103.519 71.0001 103.437ZM48.0611 93.9389C48.1588 94.1507 48.2729 94.3462 48.4358 94.5417C48.5661 94.7535 48.7454 94.9164 48.9571 95.0468C49.1038 95.1771 49.2504 95.2911 49.4296 95.34C49.8695 95.4866 50.179 95.6333 50.6678 95.6333C51.7268 95.617 52.4925 94.9653 53.1442 94.1833C54.7571 92.2283 55.7834 89.8985 56.875 87.634C58.4716 88.8396 60.0845 90.0452 61.6974 91.2345C58.0643 96.1872 52.1178 103.209 46.1712 98.5332C45.6336 98.1096 45.1937 97.6535 44.8353 97.181C44.3628 96.8226 43.9067 96.3827 43.4831 95.8451C38.791 89.9148 45.8291 83.9683 50.7818 80.3189C51.9711 81.9318 53.1767 83.5447 54.3823 85.1413C52.1015 86.2166 49.788 87.243 47.833 88.8721C47.051 89.5238 46.3993 90.2895 46.383 91.3485C46.383 91.821 46.5134 92.1468 46.6763 92.5867C46.7415 92.7659 46.8392 92.9288 46.9695 93.0592C47.0999 93.271 47.2791 93.4339 47.4746 93.5805C47.6538 93.7108 47.8493 93.8412 48.0611 93.9389ZM27.9732 71C27.8592 71.9775 27.8918 73.0364 28.071 74.1932C29.2277 81.1987 35.272 83.0722 41.6584 83.1537C37.1944 87.7317 34.2456 93.3198 38.3837 99.1034C39.068 100.048 39.8011 100.814 40.5668 101.433C41.1696 102.199 41.9516 102.932 42.8966 103.616C48.6802 107.754 54.2683 104.806 58.8463 100.342C58.9278 106.728 60.8013 112.772 67.8068 113.929C68.9636 114.125 70.0225 114.141 71.0001 114.027C71.9776 114.141 73.0365 114.108 74.1933 113.929C81.1988 112.772 83.0723 106.728 83.1538 100.342C87.7318 104.806 93.3199 107.754 99.1035 103.616C100.048 102.932 100.814 102.199 101.433 101.433C102.199 100.83 102.932 100.048 103.616 99.1034C107.755 93.3198 104.806 87.7317 100.342 83.1537C106.728 83.0722 112.772 81.1987 113.929 74.1932C114.125 73.0364 114.141 71.9775 114.027 71C114.141 70.0224 114.108 68.9635 113.929 67.8068C112.772 60.8012 106.728 58.9277 100.342 58.8462C104.806 54.2682 107.755 48.6801 103.616 42.8965C102.932 41.9516 102.199 41.1858 101.433 40.5667C100.83 39.801 100.048 39.0679 99.1035 38.3836C93.3199 34.2455 87.7318 37.1943 83.1538 41.6583C83.0723 35.2719 81.1988 29.2276 74.1933 28.0709C73.0365 27.8754 71.9776 27.8591 71.0001 27.9731C70.0225 27.8591 68.9636 27.8917 67.8068 28.0709C60.8013 29.2276 58.9278 35.2719 58.8463 41.6583C54.2683 37.1943 48.6802 34.2455 42.8966 38.3836C41.9516 39.0679 41.1859 39.801 40.5668 40.5667C39.8011 41.1695 39.068 41.9516 38.3837 42.8965C34.2456 48.6801 37.1944 54.2682 41.6584 58.8462C35.272 58.9277 29.2277 60.8012 28.071 67.8068C27.8918 68.9635 27.8592 70.0224 27.9732 71ZM25.2362 89.9474C24.112 83.6425 23.0694 77.3049 21.9452 71C23.0694 64.6787 24.112 58.3575 25.2362 52.0525C28.9019 46.7902 32.6327 41.5768 36.2984 36.3146C41.5606 32.6489 46.774 28.9181 52.0363 25.2524C58.3413 24.1282 64.6788 23.0856 70.9838 21.9614C77.305 23.0856 83.6263 24.1282 89.9312 25.2524C95.1935 28.9181 100.407 32.6489 105.669 36.3146C109.335 41.5768 113.066 46.7902 116.731 52.0525C117.855 58.3575 118.898 64.695 120.022 71C118.898 77.3049 117.855 83.6425 116.731 89.9474C113.066 95.2097 109.335 100.423 105.669 105.685C100.407 109.351 95.1935 113.082 89.9312 116.748C83.6263 117.872 77.2887 118.914 70.9838 120.038C64.6625 118.914 58.3413 117.872 52.0363 116.748C46.774 113.082 41.5606 109.351 36.2984 105.685C32.649 100.423 28.9019 95.2097 25.2362 89.9474Z" fill="#0D0D0D" fill-opacity="0.05"/>
</svg>
