<svg width="142" height="142" viewBox="0 0 142 142" fill="none" xmlns="http://www.w3.org/2000/svg">
<path d="M0 71C1.67806 80.1234 3.14433 89.2795 4.8224 98.4029C10.0847 106.044 15.5262 113.554 20.7884 121.195C28.4293 126.458 35.9399 131.899 43.5808 137.161C52.7042 138.839 61.8603 140.306 70.9837 141.984C80.1072 140.306 89.2632 138.839 98.3866 137.161C106.028 131.899 113.538 126.458 121.179 121.195C126.441 113.554 131.883 106.044 137.145 98.4029C138.823 89.2795 140.289 80.1234 141.967 71C140.289 61.8765 138.823 52.7205 137.145 43.5971C131.883 35.9562 126.441 28.4456 121.179 20.8047C113.538 15.5425 106.028 10.101 98.3866 4.83869C89.2795 3.14433 80.1234 1.67806 71 0C61.8765 1.67806 52.7205 3.14433 43.5971 4.8224C35.9562 10.0847 28.4456 15.5262 20.8047 20.7884C15.5425 28.4293 10.101 35.9399 4.83869 43.5808C3.14433 52.7042 1.67806 61.8765 0 71ZM11.5184 95.6333C10.0195 87.4385 8.68357 79.1948 7.20101 71C8.68357 62.7889 10.0195 54.5615 11.5184 46.3667C16.2593 39.5078 21.1306 32.7467 25.8878 25.8878C32.7467 21.1469 39.5078 16.2593 46.3667 11.5184C54.5615 10.0195 62.8052 8.68357 71 7.20101C79.2111 8.68357 87.4385 10.0195 95.6333 11.5184C102.492 16.2593 109.253 21.1306 116.112 25.8878C120.853 32.7467 125.741 39.5078 130.482 46.3667C131.98 54.5615 133.316 62.8052 134.799 71C133.3 79.1948 131.964 87.4385 130.465 95.6333C125.724 102.492 120.853 109.253 116.096 116.112C109.237 120.853 102.476 125.741 95.617 130.482C87.4222 131.98 79.1785 133.316 70.9837 134.799C62.7726 133.316 54.5452 131.98 46.3504 130.482C39.4915 125.741 32.7304 120.869 25.8715 116.112C21.1469 109.253 16.2593 102.492 11.5184 95.6333Z" fill="white" fill-opacity="0.05"/>
<path d="M63.0659 71.0001C63.2125 72.0265 63.3592 73.0691 63.5221 74.0955C64.1412 74.9264 64.7603 75.7736 65.3957 76.6045C66.2265 77.2236 67.0574 77.8589 67.9046 78.478C68.931 78.6247 69.9737 78.7876 71.0001 78.9342C72.0265 78.7876 73.0691 78.641 74.0955 78.478C74.9264 77.8589 75.7736 77.2399 76.6045 76.6045C77.2236 75.7736 77.8589 74.9427 78.478 74.0955C78.6247 73.0691 78.7876 72.0265 78.9342 71.0001C78.7876 69.9737 78.641 68.931 78.478 67.9046C77.8589 67.0737 77.2399 66.2265 76.6045 65.3957C75.7736 64.7766 74.9427 64.1412 74.0955 63.5221C73.0691 63.3755 72.0265 63.2125 71.0001 63.0659C69.9737 63.2125 68.931 63.3592 67.9046 63.5221C67.0737 64.1412 66.2265 64.7603 65.3957 65.3957C64.7766 66.2265 64.1412 67.0574 63.5221 67.9046C63.3755 68.931 63.2125 69.9574 63.0659 71.0001ZM69.6641 71.554C69.6315 71.3748 69.6153 71.1793 69.5827 71.0001C69.6153 70.8209 69.6315 70.6254 69.6641 70.4461C69.7782 70.2995 69.8922 70.1529 70.0063 69.99C70.1529 69.8759 70.2995 69.7619 70.4624 69.6641C70.6416 69.6315 70.8371 69.6153 71.0164 69.5827C71.1956 69.6153 71.3911 69.6315 71.5703 69.6641C71.7169 69.7782 71.8635 69.8922 72.0265 69.99C72.1405 70.1366 72.2545 70.2832 72.3523 70.4461C72.3849 70.6254 72.4012 70.8209 72.4337 71.0001C72.4012 71.1793 72.3849 71.3748 72.3523 71.554C72.2382 71.7006 72.1242 71.8472 72.0265 72.0102C71.8798 72.1242 71.7332 72.2382 71.5703 72.3523C71.3911 72.3849 71.1956 72.4012 71.0164 72.4337C70.8371 72.4012 70.6416 72.3849 70.4624 72.3523C70.3158 72.2382 70.1692 72.1242 70.0063 72.0102C69.8759 71.8472 69.7782 71.7006 69.6641 71.554Z" fill="white" fill-opacity="0.05"/>
<path d="M17.4321 71.0001C18.6703 77.8915 19.8107 84.7993 21.0489 91.6907C25.0567 97.4418 29.1297 103.128 33.1212 108.879C38.8722 112.87 44.5581 116.959 50.3091 120.951C57.2006 122.189 64.1083 123.313 70.9998 124.568C77.8913 123.33 84.799 122.189 91.6905 120.951C97.4415 116.943 103.127 112.87 108.878 108.879C112.87 103.128 116.959 97.4418 120.951 91.6907C122.189 84.7993 123.313 77.8915 124.567 71.0001C123.329 64.1086 122.189 57.2008 120.951 50.3094C116.943 44.5583 112.87 38.8725 108.878 33.1214C103.127 29.1299 97.4415 25.0407 91.6905 21.0492C84.799 19.811 77.8913 18.6868 70.9998 17.4324C64.1083 18.6706 57.2006 19.811 50.3091 21.0492C44.5581 25.057 38.8722 29.1299 33.1212 33.1214C29.1297 38.8725 25.0404 44.5583 21.0489 50.3094C19.8107 57.2008 18.6866 64.1086 17.4321 71.0001ZM54.9197 77.6471C54.5776 75.4314 54.2518 73.2157 53.9422 70.9838C54.2518 68.7681 54.5776 66.5361 54.9197 64.3204C56.2394 62.512 57.5753 60.7036 58.9275 58.9115C60.7196 57.5593 62.5117 56.2233 64.3364 54.9037C66.5521 54.5616 68.7678 54.2357 70.9998 53.9262C73.2155 54.2357 75.4475 54.5616 77.6632 54.9037C79.4716 56.2233 81.28 57.5593 83.0721 58.9115C84.4243 60.7036 85.7602 62.4957 87.0799 64.3204C87.422 66.5361 87.7479 68.7518 88.0574 70.9838C87.7479 73.1995 87.422 75.4314 87.0799 77.6471C85.7602 79.4555 84.4243 81.2639 83.0721 83.056C81.28 84.4083 79.4879 85.7442 77.6632 87.0638C75.4475 87.406 73.2318 87.7318 70.9998 88.0414C68.7841 87.7318 66.5521 87.406 64.3364 87.0638C62.528 85.7442 60.7196 84.4083 58.9275 83.056C57.5916 81.2639 56.2557 79.4555 54.9197 77.6471ZM38.3998 72.3523C38.3672 72.1242 38.3835 72.1405 38.4161 72.4174C38.4649 72.7596 38.4649 72.727 38.3998 72.3197C38.3998 72.336 38.3998 72.336 38.3998 72.3523ZM48.908 94.998C48.7288 94.8676 48.7451 94.8676 48.9732 95.0469C49.2502 95.2587 49.2176 95.2424 48.8917 94.9817C48.8917 94.9817 48.908 94.998 48.908 94.998ZM72.352 103.584C72.1239 103.616 72.1402 103.6 72.4172 103.568C72.7593 103.519 72.7267 103.519 72.3194 103.584C72.3357 103.584 72.3357 103.584 72.352 103.584ZM94.9977 93.0918C94.8674 93.271 94.8674 93.2547 95.0466 93.0267C95.2584 92.7497 95.2421 92.7823 94.9814 93.1081C94.9814 93.1081 94.9977 93.0918 94.9977 93.0918ZM103.584 69.6478C103.616 69.8759 103.616 69.8596 103.567 69.5827C103.518 69.2405 103.518 69.2731 103.584 69.6804C103.584 69.6641 103.584 69.6478 103.584 69.6478ZM93.0916 47.0021C93.2708 47.1325 93.2545 47.1325 93.0264 46.9532C92.7495 46.7415 92.782 46.7577 93.1079 47.0184C93.1079 47.0021 93.0916 47.0021 93.0916 47.0021ZM69.6476 38.4C69.8757 38.3674 69.8594 38.3837 69.5661 38.4163C69.224 38.4652 69.2566 38.4652 69.6639 38.4C69.6639 38.4 69.6476 38.4 69.6476 38.4ZM47.0019 48.9083C47.1322 48.7291 47.1322 48.7454 46.953 48.9734C46.7412 49.2504 46.7575 49.2178 47.0182 48.892C47.0019 48.892 47.0019 48.9083 47.0019 48.9083ZM38.3998 69.6804C38.4486 69.2731 38.4649 69.2242 38.4161 69.5827C38.3835 69.8596 38.3835 69.8759 38.3998 69.6478C38.3998 69.6478 38.3998 69.6641 38.3998 69.6804ZM47.0182 93.1081C46.7575 92.7823 46.7412 92.7497 46.953 93.0267C47.1322 93.2547 47.1322 93.271 47.0019 93.0918C47.0019 93.0918 47.0019 93.1081 47.0182 93.1081ZM69.6802 103.584C69.2729 103.535 69.224 103.519 69.5824 103.568C69.8594 103.6 69.8757 103.6 69.6639 103.584C69.6476 103.584 69.6639 103.584 69.6802 103.584ZM93.1079 94.9817C92.782 95.2424 92.7495 95.2587 93.0264 95.0469C93.2545 94.8676 93.2708 94.8676 93.0916 94.998C93.0916 94.998 93.1079 94.9817 93.1079 94.9817ZM103.584 72.3197C103.535 72.727 103.518 72.7759 103.567 72.4174C103.6 72.1405 103.6 72.1242 103.584 72.3523C103.584 72.336 103.584 72.336 103.584 72.3197ZM94.9814 48.892C95.2421 49.2178 95.2584 49.2504 95.0466 48.9734C94.8674 48.7454 94.8674 48.7291 94.9977 48.9083C94.9977 48.9083 94.9814 48.892 94.9814 48.892ZM72.3194 38.4C72.7267 38.4489 72.7756 38.4652 72.4172 38.4163C72.1402 38.3837 72.1239 38.3837 72.352 38.4C72.3357 38.4 72.3357 38.4 72.3194 38.4ZM48.8917 47.0184C49.2176 46.7577 49.2502 46.7415 48.9732 46.9532C48.7451 47.1325 48.7288 47.1325 48.908 47.0021C48.908 47.0021 48.8917 47.0021 48.8917 47.0184ZM38.5627 71.0001C38.4812 71.2118 38.4324 71.4399 38.3998 71.6843C38.3509 71.9287 38.3672 72.1731 38.4161 72.4174C38.4161 72.6129 38.4649 72.7922 38.5464 72.9714C38.7419 73.395 38.8722 73.7208 39.2144 74.0466C39.9801 74.7961 40.9739 74.8612 41.984 74.7798C44.5092 74.5354 46.8878 73.623 49.2502 72.7759C49.5271 74.7635 49.8204 76.7511 50.1136 78.7387C44.0368 79.6673 34.8644 80.433 33.9847 72.9225C33.9032 72.2382 33.9032 71.6029 33.9847 71.0163C33.9032 70.4298 33.9032 69.7945 33.9847 69.1102C34.8644 61.5996 44.0368 62.3654 50.1136 63.294C49.8041 65.2816 49.5271 67.2692 49.2502 69.2568C46.8715 68.4096 44.5092 67.4973 41.984 67.2529C40.9739 67.1552 39.9801 67.2366 39.2144 67.9861C38.8722 68.3119 38.7419 68.6377 38.5464 69.0613C38.4649 69.2405 38.4161 69.4197 38.4161 69.6152C38.3672 69.8596 38.3509 70.104 38.3998 70.3484C38.4324 70.5602 38.4812 70.7883 38.5627 71.0001ZM48.0608 48.0611C47.8491 48.1588 47.6536 48.2729 47.4581 48.4358C47.2463 48.5661 47.0833 48.7454 46.953 48.9571C46.8227 49.1038 46.7086 49.2504 46.6597 49.4296C46.5131 49.8695 46.3665 50.179 46.3665 50.6678C46.3828 51.7268 47.0345 52.4925 47.8165 53.1442C49.7715 54.7571 52.1012 55.7834 54.3658 56.875C53.1602 58.4716 51.9546 60.0845 50.7653 61.6974C45.8126 58.0643 38.7908 52.1178 43.4665 46.1712C43.8901 45.6336 44.3463 45.1937 44.8188 44.8353C45.1772 44.3628 45.6171 43.9067 46.1547 43.4831C52.0849 38.791 58.0315 45.8291 61.6809 50.7818C60.068 51.9711 58.4551 53.1605 56.8585 54.3823C55.7832 52.1015 54.7568 49.788 53.1276 47.833C52.4759 47.051 51.7102 46.3993 50.6513 46.383C50.1788 46.383 49.853 46.5134 49.4131 46.6763C49.2339 46.7415 49.0709 46.8392 48.9406 46.9695C48.7288 47.0999 48.5659 47.2628 48.4193 47.4746C48.2726 47.6538 48.1586 47.8493 48.0608 48.0611ZM70.9998 38.5629C70.788 38.4815 70.5599 38.4326 70.3155 38.4C70.0712 38.3511 69.8268 38.3674 69.5824 38.4163C69.3869 38.4163 69.2077 38.4652 69.0285 38.5466C68.6049 38.7421 68.2791 38.8725 67.9532 39.2146C67.2038 39.9803 67.1386 40.9741 67.2201 41.9842C67.4645 44.5095 68.3768 46.8881 69.224 49.2504C67.2364 49.5274 65.2488 49.8206 63.2612 50.1139C62.3325 44.037 61.5668 34.8647 69.0774 33.9849C69.7616 33.9035 70.397 33.9035 70.9835 33.9849C71.57 33.9035 72.2054 33.9035 72.8897 33.9849C80.4002 34.8647 79.6345 44.037 78.7059 50.1139C76.7183 49.8043 74.7306 49.5274 72.743 49.2504C73.5902 46.8718 74.5026 44.5095 74.7469 41.9842C74.8447 40.9741 74.7632 39.9803 74.0138 39.2146C73.688 38.8725 73.3621 38.7421 72.9385 38.5466C72.7593 38.4652 72.5801 38.4163 72.3846 38.4163C72.1402 38.3674 71.8959 38.3511 71.6515 38.4C71.4397 38.4326 71.2116 38.4815 70.9998 38.5629ZM93.9388 48.0611C93.841 47.8493 93.727 47.6538 93.5641 47.4583C93.4337 47.2465 93.2545 47.0836 93.0427 46.9532C92.8961 46.8229 92.7495 46.7089 92.5702 46.66C92.1304 46.5134 91.8208 46.3667 91.3321 46.3667C90.2731 46.383 89.5074 47.0347 88.8557 47.8167C87.2428 49.7717 86.2164 52.1015 85.1249 54.366C83.5283 53.1604 81.9154 51.9549 80.3025 50.7655C83.9356 45.8128 89.8821 38.791 95.8286 43.4668C96.3663 43.8904 96.8061 44.3466 97.1646 44.819C97.637 45.1774 98.0932 45.6173 98.5168 46.1549C103.209 52.0852 96.1708 58.0317 91.218 61.6811C90.0287 60.0682 88.8231 58.4553 87.6175 56.8587C89.8984 55.7834 92.2118 54.7571 94.1669 53.1279C94.9489 52.4762 95.6005 51.7268 95.6168 50.6515C95.6168 50.179 95.4865 49.8532 95.3236 49.4133C95.2584 49.2341 95.1607 49.0712 95.0303 48.9409C94.9 48.7291 94.7208 48.5661 94.5253 48.4195C94.3298 48.2729 94.1506 48.1588 93.9388 48.0611ZM103.437 71.0001C103.518 70.7883 103.567 70.5602 103.6 70.3158C103.649 70.0714 103.632 69.827 103.584 69.5827C103.584 69.3872 103.535 69.2079 103.453 69.0287C103.258 68.6051 103.127 68.2793 102.785 67.9535C102.02 67.204 101.026 67.1389 100.016 67.2203C97.4904 67.4647 95.1118 68.3771 92.7495 69.2242C92.4725 67.2366 92.1792 65.249 91.886 63.2614C97.9629 62.3328 107.135 61.5671 108.015 69.0776C108.096 69.7619 108.096 70.3973 108.015 70.9838C108.096 71.5703 108.096 72.2057 108.015 72.8899C107.135 80.4005 97.9629 79.6347 91.886 78.7061C92.1955 76.7185 92.4725 74.7309 92.7495 72.7433C95.1281 73.5905 97.4904 74.5028 100.016 74.7472C101.026 74.8449 102.02 74.7635 102.785 74.014C103.127 73.6882 103.258 73.3624 103.453 72.9388C103.535 72.7596 103.584 72.5804 103.584 72.3849C103.632 72.1405 103.649 71.8961 103.6 71.6517C103.567 71.4399 103.518 71.2118 103.437 71.0001ZM93.9388 93.939C94.1506 93.8413 94.3461 93.7272 94.5416 93.5643C94.7534 93.434 94.9163 93.2548 95.0466 93.043C95.1769 92.8963 95.291 92.7497 95.3399 92.5705C95.4865 92.1306 95.6331 91.8211 95.6331 91.3323C95.6168 90.2733 94.9652 89.5076 94.1831 88.8559C92.2281 87.2431 89.8984 86.2167 87.6338 85.1251C88.8394 83.5285 90.045 81.9156 91.2343 80.3027C96.187 83.9358 103.209 89.8823 98.5331 95.8289C98.1095 96.3665 97.6533 96.8064 97.1809 97.1648C96.8224 97.6373 96.3825 98.0934 95.8449 98.517C89.9147 103.209 83.9681 96.171 80.3188 91.2183C81.9317 90.029 83.5445 88.8397 85.1412 87.6178C86.2164 89.8986 87.2428 92.2121 88.872 94.1671C89.5237 94.9491 90.2894 95.6008 91.3484 95.6171C91.8208 95.6171 92.1467 95.4867 92.5865 95.3238C92.7658 95.2586 92.9287 95.1609 93.059 95.0306C93.2708 94.9002 93.4337 94.721 93.5803 94.5255C93.7107 94.33 93.841 94.1508 93.9388 93.939ZM70.9998 103.437C71.2116 103.519 71.4397 103.568 71.6841 103.6C71.9284 103.649 72.1728 103.633 72.4172 103.584C72.6127 103.584 72.7919 103.535 72.9711 103.453C73.3947 103.258 73.7206 103.128 74.0464 102.785C74.7958 102.02 74.861 101.026 74.7795 100.016C74.5351 97.4906 73.6228 95.112 72.7756 92.7497C74.7632 92.4727 76.7508 92.1795 78.7385 91.8862C79.6671 97.9631 80.4328 107.135 72.9222 108.015C72.238 108.097 71.6026 108.097 71.0161 108.015C70.4296 108.097 69.7942 108.097 69.1099 108.015C61.5994 107.135 62.3651 97.9631 63.2937 91.8862C65.2814 92.1958 67.269 92.4727 69.2566 92.7497C68.4094 95.1283 67.4971 97.4906 67.2527 100.016C67.1549 101.026 67.2364 102.02 67.9858 102.785C68.3116 103.128 68.6375 103.258 69.0611 103.453C69.2403 103.535 69.4195 103.584 69.615 103.584C69.8594 103.633 70.1038 103.649 70.3481 103.6C70.5599 103.568 70.788 103.519 70.9998 103.437ZM48.0608 93.939C48.1586 94.1508 48.2726 94.3463 48.4356 94.5418C48.5659 94.7536 48.7451 94.9165 48.9569 95.0469C49.1035 95.1772 49.2502 95.2912 49.4294 95.3401C49.8692 95.4867 50.1788 95.6334 50.6676 95.6334C51.7265 95.6171 52.4922 94.9654 53.1439 94.1834C54.7568 92.2284 55.7832 89.8986 56.8748 87.6341C58.4714 88.8397 60.0843 90.0453 61.6971 91.2346C58.0641 96.1873 52.1175 103.209 46.171 98.5333C45.6334 98.1097 45.1935 97.6536 44.8351 97.1811C44.3626 96.8227 43.9064 96.3828 43.4828 95.8452C38.7908 89.9149 45.8289 83.9684 50.7816 80.319C51.9709 81.9319 53.1765 83.5448 54.3821 85.1414C52.1012 86.2167 49.7878 87.243 47.8328 88.8722C47.0508 89.5239 46.3991 90.2896 46.3828 91.3486C46.3828 91.8211 46.5131 92.1469 46.676 92.5868C46.7412 92.766 46.839 92.9289 46.9693 93.0592C47.0996 93.271 47.2788 93.434 47.4743 93.5806C47.6536 93.7109 47.8491 93.8413 48.0608 93.939ZM27.973 71.0001C27.8589 71.9776 27.8915 73.0365 28.0707 74.1933C29.2274 81.1988 35.2717 83.0723 41.6581 83.1538C37.1942 87.7318 34.2453 93.3199 38.3835 99.1035C39.0677 100.048 39.8009 100.814 40.5666 101.433C41.1694 102.199 41.9514 102.932 42.8963 103.616C48.6799 107.755 54.2681 104.806 58.8461 100.342C58.9275 106.728 60.8011 112.772 67.8066 113.929C68.9633 114.125 70.0223 114.141 70.9998 114.027C71.9773 114.141 73.0363 114.108 74.193 113.929C81.1985 112.772 83.0721 106.728 83.1535 100.342C87.7316 104.806 93.3197 107.755 99.1033 103.616C100.048 102.932 100.814 102.199 101.433 101.433C102.199 100.83 102.932 100.048 103.616 99.1035C107.754 93.3199 104.805 87.7318 100.341 83.1538C106.728 83.0723 112.772 81.1988 113.929 74.1933C114.124 73.0365 114.141 71.9776 114.027 71.0001C114.141 70.0225 114.108 68.9636 113.929 67.8068C112.772 60.8013 106.728 58.9278 100.341 58.8463C104.805 54.2683 107.754 48.6802 103.616 42.8966C102.932 41.9516 102.199 41.1859 101.433 40.5668C100.83 39.8011 100.048 39.068 99.1033 38.3837C93.3197 34.2456 87.7316 37.1944 83.1535 41.6584C83.0721 35.272 81.1985 29.2277 74.193 28.071C73.0363 27.8755 71.9773 27.8592 70.9998 27.9732C70.0223 27.8592 68.9633 27.8918 67.8066 28.071C60.8011 29.2277 58.9275 35.272 58.8461 41.6584C54.2681 37.1944 48.6799 34.2456 42.8963 38.3837C41.9514 39.068 41.1857 39.8011 40.5666 40.5668C39.8009 41.1696 39.0677 41.9516 38.3835 42.8966C34.2453 48.6802 37.1942 54.2683 41.6581 58.8463C35.2717 58.9278 29.2274 60.8013 28.0707 67.8068C27.8915 68.9636 27.8589 70.0225 27.973 71.0001ZM25.2359 89.9475C24.1118 83.6425 23.0691 77.305 21.945 71.0001C23.0691 64.6788 24.1118 58.3576 25.2359 52.0526C28.9016 46.7903 32.6324 41.5769 36.2981 36.3147C41.5604 32.649 46.7738 28.9181 52.0361 25.2525C58.341 24.1283 64.6786 23.0857 70.9835 21.9615C77.3048 23.0857 83.626 24.1283 89.931 25.2525C95.1932 28.9181 100.407 32.649 105.669 36.3147C109.335 41.5769 113.065 46.7903 116.731 52.0526C117.855 58.3576 118.898 64.6951 120.022 71.0001C118.898 77.305 117.855 83.6425 116.731 89.9475C113.065 95.2098 109.335 100.423 105.669 105.685C100.407 109.351 95.1932 113.082 89.931 116.748C83.626 117.872 77.2885 118.914 70.9835 120.039C64.6623 118.914 58.341 117.872 52.0361 116.748C46.7738 113.082 41.5604 109.351 36.2981 105.685C32.6487 100.423 28.9016 95.2098 25.2359 89.9475Z" fill="white" fill-opacity="0.05"/>
</svg>
