<svg width="124" height="124" viewBox="0 0 124 124" fill="none" xmlns="http://www.w3.org/2000/svg">
<path d="M0 62C1.46535 69.967 2.74575 77.9624 4.21111 85.9293C8.80633 92.6016 13.5581 99.1602 18.1533 105.832C24.8256 110.428 31.3841 115.179 38.0564 119.775C46.0234 121.24 54.0188 122.52 61.9858 123.986C69.9527 122.52 77.9481 121.24 85.9151 119.775C92.5874 115.179 99.1459 110.428 105.818 105.832C110.413 99.1602 115.165 92.6016 119.76 85.9293C121.226 77.9624 122.506 69.967 123.972 62C122.506 54.033 121.226 46.0376 119.76 38.0707C115.165 31.3983 110.413 24.8398 105.818 18.1675C99.1459 13.5723 92.5874 8.82056 85.9151 4.22533C77.9624 2.74575 69.967 1.46535 62 0C54.033 1.46535 46.0376 2.74575 38.0707 4.21111C31.3983 8.80633 24.8398 13.5581 18.1675 18.1533C13.5723 24.8256 8.82056 31.3841 4.22533 38.0564C2.74575 46.0234 1.46535 54.033 0 62ZM10.0583 83.5108C8.74943 76.3547 7.58284 69.156 6.28821 62C7.58284 54.8297 8.74943 47.6452 10.0583 40.4892C14.1983 34.4998 18.452 28.5957 22.6062 22.6062C28.5957 18.4663 34.4998 14.1983 40.4892 10.0583C47.6452 8.74943 54.844 7.58284 62 6.28821C69.1703 7.58284 76.3547 8.74943 83.5108 10.0583C89.5002 14.1983 95.4043 18.452 101.394 22.6062C105.534 28.5957 109.802 34.4998 113.942 40.4892C115.251 47.6452 116.417 54.844 117.712 62C116.403 69.156 115.236 76.3547 113.927 83.5108C109.788 89.5002 105.534 95.4043 101.38 101.394C95.3901 105.534 89.486 109.802 83.4965 113.942C76.3405 115.251 69.1418 116.417 61.9858 117.712C54.8155 116.417 47.631 115.251 40.475 113.942C34.4855 109.802 28.5815 105.548 22.592 101.394C18.4663 95.4043 14.1983 89.5002 10.0583 83.5108Z" fill="white" fill-opacity="0.05"/>
<path d="M55.0718 61.9999C55.1998 62.8962 55.3279 63.8067 55.4701 64.703C56.0107 65.4286 56.5514 66.1684 57.1062 66.8939C57.8318 67.4345 58.5573 67.9894 59.2971 68.53C60.1934 68.658 61.1039 68.8003 62.0002 68.9284C62.8965 68.8003 63.807 68.6723 64.7033 68.53C65.4288 67.9894 66.1686 67.4488 66.8942 66.8939C67.4348 66.1684 67.9896 65.4428 68.5302 64.703C68.6583 63.8067 68.8006 62.8962 68.9286 61.9999C68.8006 61.1037 68.6725 60.1932 68.5302 59.2969C67.9896 58.5713 67.449 57.8315 66.8942 57.106C66.1686 56.5653 65.4431 56.0105 64.7033 55.4699C63.807 55.3418 62.8965 55.1996 62.0002 55.0715C61.1039 55.1996 60.1934 55.3276 59.2971 55.4699C58.5715 56.0105 57.8318 56.5511 57.1062 57.106C56.5656 57.8315 56.0107 58.5571 55.4701 59.2969C55.3421 60.1932 55.1998 61.0894 55.0718 61.9999ZM60.8336 62.4836C60.8051 62.3272 60.7909 62.1564 60.7625 61.9999C60.7909 61.8435 60.8051 61.6727 60.8336 61.5162C60.9332 61.3882 61.0328 61.2602 61.1324 61.1179C61.2604 61.0183 61.3884 60.9187 61.5307 60.8333C61.6872 60.8049 61.8579 60.7907 62.0144 60.7622C62.1709 60.7907 62.3416 60.8049 62.4981 60.8333C62.6262 60.9329 62.7542 61.0325 62.8965 61.1179C62.9961 61.2459 63.0956 61.374 63.181 61.5162C63.2095 61.6727 63.2237 61.8435 63.2521 61.9999C63.2237 62.1564 63.2095 62.3272 63.181 62.4836C63.0814 62.6117 62.9818 62.7397 62.8965 62.882C62.7684 62.9816 62.6404 63.0812 62.4981 63.1808C62.3416 63.2092 62.1709 63.2234 62.0144 63.2519C61.8579 63.2234 61.6872 63.2092 61.5307 63.1808C61.4027 63.0812 61.2746 62.9816 61.1324 62.882C61.0185 62.7397 60.9332 62.6117 60.8336 62.4836Z" fill="white" fill-opacity="0.05"/>
<path d="M15.2227 62.0001C16.3039 68.018 17.2998 74.0501 18.381 80.068C21.8808 85.09 25.4374 90.0551 28.923 95.0772C33.945 98.5627 38.9101 102.134 43.9321 105.619C49.95 106.7 55.9822 107.682 62.0001 108.777C68.018 107.696 74.0501 106.7 80.068 105.619C85.09 102.119 90.0551 98.5627 95.0772 95.0772C98.5627 90.0551 102.134 85.09 105.619 80.068C106.7 74.0501 107.682 68.018 108.777 62.0001C107.696 55.9822 106.7 49.95 105.619 43.9321C102.119 38.9101 98.5627 33.945 95.0772 28.923C90.0551 25.4374 85.09 21.8665 80.068 18.381C74.0501 17.2998 68.018 16.3181 62.0001 15.2227C55.9822 16.3039 49.95 17.2998 43.9321 18.381C38.9101 21.8808 33.945 25.4374 28.923 28.923C25.4374 33.945 21.8665 38.9101 18.381 43.9321C17.2998 49.95 16.3181 55.9822 15.2227 62.0001ZM47.9583 67.8046C47.6595 65.8697 47.375 63.9349 47.1047 61.9858C47.375 60.051 47.6595 58.1019 47.9583 56.1671C49.1107 54.588 50.2773 53.0088 51.4581 51.4438C53.023 50.263 54.588 49.0964 56.1813 47.9441C58.1162 47.6453 60.051 47.3608 62.0001 47.0905C63.9349 47.3608 65.884 47.6453 67.8188 47.9441C69.3979 49.0964 70.9771 50.263 72.5421 51.4438C73.7229 53.0088 74.8895 54.5737 76.0418 56.1671C76.3406 58.1019 76.6251 60.0368 76.8954 61.9858C76.6251 63.9207 76.3406 65.8697 76.0418 67.8046C74.8895 69.3837 73.7229 70.9629 72.5421 72.5278C70.9771 73.7086 69.4122 74.8752 67.8188 76.0276C65.884 76.3264 63.9491 76.6109 62.0001 76.8812C60.0652 76.6109 58.1162 76.3264 56.1813 76.0276C54.6022 74.8752 53.023 73.7086 51.4581 72.5278C50.2915 70.9629 49.1249 69.3837 47.9583 67.8046ZM33.5324 63.1809C33.504 62.9817 33.5182 62.9959 33.5467 63.2378C33.5893 63.5365 33.5893 63.5081 33.5324 63.1524C33.5324 63.1667 33.5324 63.1667 33.5324 63.1809ZM42.7087 82.956C42.5522 82.8422 42.5664 82.8422 42.7656 82.9987C43.0074 83.1836 42.979 83.1694 42.6944 82.9418C42.6944 82.9418 42.7087 82.956 42.7087 82.956ZM63.1809 90.4535C62.9817 90.4819 62.9959 90.4677 63.2378 90.4392C63.5365 90.3966 63.5081 90.3966 63.1524 90.4535C63.1667 90.4535 63.1667 90.4535 63.1809 90.4535ZM82.956 81.2915C82.8422 81.448 82.8422 81.4337 82.9987 81.2346C83.1836 80.9927 83.1694 81.0212 82.9418 81.3057C82.9418 81.3057 82.956 81.2915 82.956 81.2915ZM90.4535 60.8192C90.4819 61.0184 90.4819 61.0042 90.4392 60.7623C90.3966 60.4636 90.3966 60.492 90.4535 60.8477C90.4535 60.8335 90.4535 60.8192 90.4535 60.8192ZM81.2915 41.0441C81.448 41.1579 81.4337 41.1579 81.2346 41.0014C80.9927 40.8165 81.0212 40.8307 81.3057 41.0584C81.3057 41.0441 81.2915 41.0441 81.2915 41.0441ZM60.8192 33.5324C61.0184 33.504 61.0042 33.5182 60.7481 33.5467C60.4494 33.5893 60.4778 33.5893 60.8335 33.5324C60.8335 33.5324 60.8192 33.5324 60.8192 33.5324ZM41.0441 42.7087C41.1579 42.5522 41.1579 42.5664 41.0014 42.7656C40.8165 43.0074 40.8307 42.979 41.0584 42.6944C41.0441 42.6944 41.0441 42.7087 41.0441 42.7087ZM33.5324 60.8477C33.5751 60.492 33.5893 60.4494 33.5467 60.7623C33.5182 61.0042 33.5182 61.0184 33.5324 60.8192C33.5324 60.8192 33.5324 60.8335 33.5324 60.8477ZM41.0584 81.3057C40.8307 81.0212 40.8165 80.9927 41.0014 81.2346C41.1579 81.4337 41.1579 81.448 41.0441 81.2915C41.0441 81.2915 41.0441 81.3057 41.0584 81.3057ZM60.8477 90.4535C60.492 90.4108 60.4494 90.3966 60.7623 90.4392C61.0042 90.4677 61.0184 90.4677 60.8335 90.4535C60.8192 90.4535 60.8335 90.4535 60.8477 90.4535ZM81.3057 82.9418C81.0212 83.1694 80.9927 83.1836 81.2346 82.9987C81.4337 82.8422 81.448 82.8422 81.2915 82.956C81.2915 82.956 81.3057 82.9418 81.3057 82.9418ZM90.4535 63.1524C90.4108 63.5081 90.3966 63.5508 90.4392 63.2378C90.4677 62.9959 90.4677 62.9817 90.4535 63.1809C90.4535 63.1667 90.4535 63.1667 90.4535 63.1524ZM82.9418 42.6944C83.1694 42.979 83.1836 43.0074 82.9987 42.7656C82.8422 42.5664 82.8422 42.5522 82.956 42.7087C82.956 42.7087 82.9418 42.6944 82.9418 42.6944ZM63.1524 33.5324C63.5081 33.5751 63.5508 33.5893 63.2378 33.5467C62.9959 33.5182 62.9817 33.5182 63.1809 33.5324C63.1667 33.5324 63.1667 33.5324 63.1524 33.5324ZM42.6944 41.0584C42.979 40.8307 43.0074 40.8165 42.7656 41.0014C42.5664 41.1579 42.5522 41.1579 42.7087 41.0441C42.7087 41.0441 42.6944 41.0441 42.6944 41.0584ZM33.6747 62.0001C33.6036 62.185 33.5609 62.3842 33.5324 62.5976C33.4897 62.811 33.504 63.0244 33.5467 63.2378C33.5467 63.4085 33.5893 63.565 33.6605 63.7215C33.8312 64.0914 33.945 64.3759 34.2438 64.6605C34.9124 65.3149 35.7802 65.3718 36.6623 65.3007C38.8674 65.0873 40.9445 64.2906 43.0074 63.5508C43.2493 65.2864 43.5053 67.0221 43.7614 68.7578C38.4549 69.5687 30.4452 70.2373 29.677 63.6788C29.6059 63.0813 29.6059 62.5265 29.677 62.0143C29.6059 61.5021 29.6059 60.9473 29.677 60.3498C30.4452 53.7913 38.4549 54.4599 43.7614 55.2708C43.4911 57.0065 43.2493 58.7421 43.0074 60.4778C40.9303 59.738 38.8674 58.9413 36.6623 58.7279C35.7802 58.6426 34.9124 58.7137 34.2438 59.3681C33.945 59.6527 33.8312 59.9372 33.6605 60.3071C33.5893 60.4636 33.5467 60.6201 33.5467 60.7908C33.504 61.0042 33.4897 61.2176 33.5324 61.431C33.5609 61.6159 33.6036 61.8151 33.6747 62.0001ZM41.9689 41.9689C41.7839 42.0542 41.6132 42.1538 41.4425 42.2961C41.2575 42.4099 41.1153 42.5664 41.0014 42.7513C40.8876 42.8794 40.788 43.0074 40.7454 43.1639C40.6173 43.548 40.4893 43.8183 40.4893 44.2451C40.5035 45.1699 41.0726 45.8385 41.7555 46.4076C43.4627 47.816 45.4971 48.7123 47.4746 49.6655C46.4218 51.0597 45.369 52.4682 44.3305 53.8766C40.0056 50.7041 33.8739 45.5113 37.9569 40.3186C38.3268 39.8491 38.7252 39.465 39.1378 39.152C39.4507 38.7394 39.8349 38.3411 40.3043 37.9712C45.4829 33.8739 50.6756 40.0198 53.8624 44.3447C52.4539 45.3833 51.0455 46.4218 49.6513 47.4888C48.7123 45.4971 47.816 43.4769 46.3934 41.7697C45.8243 41.0868 45.1556 40.5177 44.2309 40.5035C43.8183 40.5035 43.5338 40.6173 43.1497 40.7596C42.9932 40.8165 42.8509 40.9019 42.7371 41.0157C42.5522 41.1295 42.4099 41.2718 42.2819 41.4567C42.1538 41.6132 42.0542 41.7839 41.9689 41.9689ZM62.0001 33.6747C61.8151 33.6036 61.6159 33.5609 61.4025 33.5324C61.1891 33.4897 60.9757 33.504 60.7623 33.5467C60.5916 33.5467 60.4351 33.5893 60.2786 33.6605C59.9087 33.8312 59.6242 33.945 59.3397 34.2438C58.6852 34.9124 58.6283 35.7802 58.6995 36.6623C58.9129 38.8674 59.7096 40.9445 60.4494 43.0074C58.7137 43.2493 56.978 43.5053 55.2424 43.7614C54.4315 38.4549 53.7628 30.4452 60.3213 29.677C60.9188 29.6059 61.4737 29.6059 61.9858 29.677C62.498 29.6059 63.0528 29.6059 63.6504 29.677C70.2089 30.4452 69.5402 38.4549 68.7293 43.7614C66.9936 43.4911 65.258 43.2493 63.5223 43.0074C64.2621 40.9303 65.0588 38.8674 65.2722 36.6623C65.3576 35.7802 65.2864 34.9124 64.632 34.2438C64.3475 33.945 64.0629 33.8312 63.693 33.6605C63.5365 33.5893 63.3801 33.5467 63.2093 33.5467C62.9959 33.504 62.7825 33.4897 62.5691 33.5324C62.3842 33.5609 62.185 33.6036 62.0001 33.6747ZM82.0313 41.9689C81.9459 41.7839 81.8463 41.6132 81.7041 41.4425C81.5902 41.2575 81.4337 41.1153 81.2488 41.0014C81.1208 40.8876 80.9927 40.788 80.8362 40.7454C80.4521 40.6173 80.1818 40.4893 79.755 40.4893C78.8303 40.5035 78.1616 41.0726 77.5925 41.7555C76.1841 43.4627 75.2878 45.4971 74.3346 47.4746C72.9404 46.4218 71.532 45.369 70.1235 44.3305C73.2961 40.0056 78.4888 33.8739 83.6816 37.9569C84.151 38.3268 84.5352 38.7252 84.8482 39.1378C85.2607 39.4507 85.6591 39.8349 86.029 40.3043C90.1263 45.4829 83.9803 50.6756 79.6554 53.8624C78.6169 52.4539 77.5641 51.0455 76.5113 49.6513C78.503 48.7123 80.5232 47.816 82.2304 46.3934C82.9133 45.8243 83.4824 45.1699 83.4966 44.2309C83.4966 43.8183 83.3828 43.5338 83.2405 43.1497C83.1836 42.9932 83.0983 42.8509 82.9845 42.7371C82.8706 42.5522 82.7141 42.4099 82.5434 42.2819C82.3727 42.1538 82.2162 42.0542 82.0313 41.9689ZM90.3254 62.0001C90.3966 61.8151 90.4393 61.6159 90.4677 61.4025C90.5104 61.1891 90.4962 60.9757 90.4535 60.7623C90.4535 60.5916 90.4108 60.4351 90.3397 60.2786C90.1689 59.9087 90.0551 59.6242 89.7564 59.3397C89.0877 58.6852 88.2199 58.6283 87.3378 58.6995C85.1327 58.9129 83.0556 59.7096 80.9927 60.4494C80.7509 58.7137 80.4948 56.978 80.2387 55.2424C85.5453 54.4315 93.5549 53.7628 94.3231 60.3213C94.3943 60.9188 94.3943 61.4737 94.3231 61.9858C94.3943 62.498 94.3943 63.0528 94.3231 63.6504C93.5549 70.2089 85.5453 69.5402 80.2387 68.7293C80.509 66.9936 80.7509 65.258 80.9927 63.5223C83.0698 64.2621 85.1327 65.0588 87.3378 65.2722C88.2199 65.3576 89.0877 65.2864 89.7564 64.632C90.0551 64.3475 90.1689 64.0629 90.3397 63.693C90.4108 63.5365 90.4535 63.3801 90.4535 63.2093C90.4962 62.9959 90.5104 62.7825 90.4677 62.5691C90.4393 62.3842 90.3966 62.185 90.3254 62.0001ZM82.0313 82.0313C82.2162 81.9459 82.3869 81.8463 82.5577 81.7041C82.7426 81.5902 82.8849 81.4337 82.9987 81.2488C83.1125 81.1208 83.2121 80.9927 83.2548 80.8362C83.3828 80.4521 83.5108 80.1818 83.5108 79.755C83.4966 78.8303 82.9276 78.1616 82.2447 77.5925C80.5375 76.1841 78.503 75.2878 76.5255 74.3346C77.5783 72.9404 78.6311 71.532 79.6696 70.1235C83.9946 73.2961 90.1263 78.4888 86.0432 83.6816C85.6733 84.151 85.275 84.5352 84.8624 84.8482C84.5494 85.2607 84.1653 85.6591 83.6958 86.029C78.5173 90.1263 73.3245 83.9803 70.1377 79.6554C71.5462 78.6169 72.9546 77.5783 74.3488 76.5113C75.2878 78.503 76.1841 80.5232 77.6068 82.2304C78.1758 82.9133 78.8445 83.4824 79.7692 83.4966C80.1818 83.4966 80.4663 83.3828 80.8505 83.2405C81.0069 83.1836 81.1492 83.0983 81.263 82.9845C81.448 82.8706 81.5902 82.7141 81.7183 82.5434C81.8321 82.3727 81.9459 82.2162 82.0313 82.0313ZM62.0001 90.3254C62.185 90.3966 62.3842 90.4393 62.5976 90.4677C62.811 90.5104 63.0244 90.4962 63.2378 90.4535C63.4085 90.4535 63.565 90.4108 63.7215 90.3397C64.0914 90.1689 64.3759 90.0551 64.6605 89.7564C65.3149 89.0877 65.3718 88.2199 65.3007 87.3378C65.0873 85.1327 64.2906 83.0556 63.5508 80.9927C65.2864 80.7509 67.0221 80.4948 68.7578 80.2387C69.5687 85.5453 70.2373 93.5549 63.6788 94.3231C63.0813 94.3943 62.5265 94.3943 62.0143 94.3231C61.5021 94.3943 60.9473 94.3943 60.3498 94.3231C53.7913 93.5549 54.4599 85.5453 55.2708 80.2387C57.0065 80.509 58.7421 80.7509 60.4778 80.9927C59.738 83.0698 58.9413 85.1327 58.7279 87.3378C58.6426 88.2199 58.7137 89.0877 59.3681 89.7564C59.6527 90.0551 59.9372 90.1689 60.3071 90.3397C60.4636 90.4108 60.6201 90.4535 60.7908 90.4535C61.0042 90.4962 61.2176 90.5104 61.431 90.4677C61.6159 90.4393 61.8151 90.3966 62.0001 90.3254ZM41.9689 82.0313C42.0542 82.2162 42.1538 82.3869 42.2961 82.5577C42.4099 82.7426 42.5664 82.8849 42.7513 82.9987C42.8794 83.1125 43.0074 83.2121 43.1639 83.2548C43.548 83.3828 43.8183 83.5108 44.2451 83.5108C45.1699 83.4966 45.8385 82.9276 46.4076 82.2447C47.816 80.5375 48.7123 78.503 49.6655 76.5255C51.0597 77.5783 52.4682 78.6311 53.8766 79.6696C50.7041 83.9946 45.5113 90.1263 40.3186 86.0432C39.8491 85.6733 39.465 85.275 39.152 84.8624C38.7394 84.5494 38.3411 84.1653 37.9712 83.6958C33.8739 78.5173 40.0198 73.3245 44.3447 70.1377C45.3833 71.5462 46.436 72.9546 47.4888 74.3488C45.4971 75.2878 43.4769 76.1841 41.7697 77.6068C41.0868 78.1758 40.5177 78.8445 40.5035 79.7692C40.5035 80.1818 40.6173 80.4663 40.7596 80.8505C40.8165 81.0069 40.9019 81.1492 41.0157 81.263C41.1295 81.448 41.286 81.5902 41.4567 81.7183C41.6132 81.8321 41.7839 81.9459 41.9689 82.0313ZM24.4273 62.0001C24.3277 62.8537 24.3562 63.7784 24.5127 64.7885C25.5228 70.906 30.8009 72.5421 36.3778 72.6132C32.4797 76.6109 29.9046 81.4907 33.5182 86.5411C34.1157 87.3663 34.7559 88.0349 35.4246 88.5755C35.951 89.2442 36.6338 89.8844 37.459 90.4819C42.5095 94.0955 47.3892 91.5205 51.3869 87.6224C51.4581 93.1992 53.0941 98.4773 59.2116 99.4874C60.2217 99.6582 61.1465 99.6724 62.0001 99.5728C62.8537 99.6724 63.7784 99.6439 64.7885 99.4874C70.906 98.4773 72.5421 93.1992 72.6132 87.6224C76.6109 91.5205 81.4907 94.0955 86.5411 90.4819C87.3663 89.8844 88.0349 89.2442 88.5755 88.5755C89.2442 88.0492 89.8844 87.3663 90.4819 86.5411C94.0955 81.4907 91.5205 76.6109 87.6224 72.6132C93.1992 72.5421 98.4773 70.906 99.4874 64.7885C99.6582 63.7784 99.6724 62.8537 99.5728 62.0001C99.6724 61.1465 99.6439 60.2217 99.4874 59.2116C98.4773 53.0941 93.1992 51.4581 87.6224 51.3869C91.5205 47.3892 94.0955 42.5095 90.4819 37.459C89.8844 36.6338 89.2442 35.9652 88.5755 35.4246C88.0492 34.7559 87.3663 34.1157 86.5411 33.5182C81.4907 29.9046 76.6109 32.4797 72.6132 36.3778C72.5421 30.8009 70.906 25.5228 64.7885 24.5127C63.7784 24.342 62.8537 24.3277 62.0001 24.4273C61.1465 24.3277 60.2217 24.3562 59.2116 24.5127C53.0941 25.5228 51.4581 30.8009 51.3869 36.3778C47.3892 32.4797 42.5095 29.9046 37.459 33.5182C36.6338 34.1157 35.9652 34.7559 35.4246 35.4246C34.7559 35.951 34.1157 36.6338 33.5182 37.459C29.9046 42.5095 32.4797 47.3892 36.3778 51.3869C30.8009 51.4581 25.5228 53.0941 24.5127 59.2116C24.3562 60.2217 24.3277 61.1465 24.4273 62.0001ZM22.0372 78.5457C21.0556 73.04 20.1451 67.5058 19.1635 62.0001C20.1451 56.4801 21.0556 50.9601 22.0372 45.4544C25.2383 40.8592 28.4962 36.3066 31.6972 31.7114C36.2924 28.5104 40.845 25.2525 45.4402 22.0515C50.9459 21.0698 56.4801 20.1593 61.9858 19.1777C67.5058 20.1593 73.0258 21.0698 78.5315 22.0515C83.1267 25.2525 87.6793 28.5104 92.2745 31.7114C95.4755 36.3066 98.7334 40.8592 101.934 45.4544C102.916 50.9601 103.827 56.4943 104.808 62.0001C103.827 67.5058 102.916 73.04 101.934 78.5457C98.7334 83.1409 95.4755 87.6935 92.2745 92.2887C87.6793 95.4897 83.1267 98.7477 78.5315 101.949C73.0258 102.93 67.4916 103.841 61.9858 104.822C56.4659 103.841 50.9459 102.93 45.4402 101.949C40.845 98.7477 36.2924 95.4897 31.6972 92.2887C28.5104 87.6935 25.2383 83.1409 22.0372 78.5457Z" fill="white" fill-opacity="0.05"/>
</svg>
