<svg width="25" height="24" viewBox="0 0 25 24" fill="none" xmlns="http://www.w3.org/2000/svg">
<path d="M10.5 18C12.346 18 14.043 17.365 15.397 16.312L19.793 20.708L21.207 19.294L16.811 14.898C17.865 13.543 18.5 11.846 18.5 10C18.5 5.589 14.911 2 10.5 2C6.089 2 2.5 5.589 2.5 10C2.5 14.411 6.089 18 10.5 18ZM10.5 4C13.809 4 16.5 6.691 16.5 10C16.5 13.309 13.809 16 10.5 16C7.191 16 4.5 13.309 4.5 10C4.5 6.691 7.191 4 10.5 4Z" fill="#3C2710"/>
<path d="M11.9118 8.58609C12.2908 8.96609 12.4998 9.46809 12.4998 10.0001H14.4998C14.4998 8.93509 14.0838 7.93109 13.3258 7.17209C11.8118 5.66009 9.18683 5.66009 7.67383 7.17209L9.08583 8.58809C9.84583 7.83009 11.1558 7.83209 11.9118 8.58609Z" fill="#3C2710"/>
</svg>
